<svg xmlns="https://www.w3.org/2000/svg" viewBox="0 0 500 500"><g id="freepik--Device--inject-62"><path d="M394.42,392.38l-126.13-.08a27.48,27.48,0,0,1-27.46-27.48l.06-316.21a27.48,27.48,0,0,1,27.49-27.47l126.13.08A27.48,27.48,0,0,1,422,48.7l-.06,316.21A27.47,27.47,0,0,1,394.42,392.38Z" style="fill:#263238"></path><path d="M394.38,32.4H369.92a6.06,6.06,0,0,0-5.93,6.2V43a6.07,6.07,0,0,1-5.94,6.2l-47.66,0A6.08,6.08,0,0,1,304.44,43V38.56a6.08,6.08,0,0,0-5.94-6.21h-30a19.24,19.24,0,0,0-19.25,19.24l-.06,308.64a19.25,19.25,0,0,0,19.23,19.25l125.88.07a19.25,19.25,0,0,0,19.25-19.24l.06-308.64A19.25,19.25,0,0,0,394.38,32.4Z" style="fill:#fff"></path><path d="M394.38,32.4H369.92a6.06,6.06,0,0,0-5.93,6.2V43a6.07,6.07,0,0,1-5.94,6.2l-47.66,0A6.08,6.08,0,0,1,304.44,43V38.56a6.08,6.08,0,0,0-5.94-6.21h-30a19.24,19.24,0,0,0-19.25,19.24V81.9H413.6V51.65A19.25,19.25,0,0,0,394.38,32.4Z" style="fill:#ebebeb"></path><path d="M396.07,56.68a2.13,2.13,0,1,1-2.13-2.12A2.13,2.13,0,0,1,396.07,56.68Z" style="fill:#263238"></path><path d="M396.07,62.43a2.13,2.13,0,1,1-2.13-2.13A2.12,2.12,0,0,1,396.07,62.43Z" style="fill:#263238"></path><path d="M396.07,68.17a2.13,2.13,0,1,1-2.13-2.12A2.12,2.12,0,0,1,396.07,68.17Z" style="fill:#263238"></path><circle cx="400.42" cy="96.82" r="2.88" style="fill:#e0e0e0"></circle><path d="M396.82,101.3a2.88,2.88,0,1,1-2.88-2.88A2.88,2.88,0,0,1,396.82,101.3Z" style="fill:#e0e0e0"></path><path d="M403.3,105.42a2.88,2.88,0,1,1-2.88-2.88A2.88,2.88,0,0,1,403.3,105.42Z" style="fill:#e0e0e0"></path><polygon points="399.6 105.84 393.03 101.29 400.12 96.39 400.72 97.25 394.86 101.3 400.19 104.99 399.6 105.84" style="fill:#e0e0e0"></polygon><rect x="262.11" y="88.8" width="123.26" height="26.26" rx="12.56" style="fill:#ebebeb"></rect><path d="M281.62,102v2.85h-1.44v-2.62c0-.81-.37-1.18-1-1.18s-1.19.43-1.19,1.34v2.46h-1.44V98H278v2.41a2.18,2.18,0,0,1,1.58-.6A2,2,0,0,1,281.62,102Z" style="fill:#263238"></path><path d="M286.13,104.59a2,2,0,0,1-1.17.32,1.64,1.64,0,0,1-1.86-1.79v-2h-.77V100h.77V98.76h1.44V100h1.24v1.11h-1.24v2a.58.58,0,0,0,.62.66,1,1,0,0,0,.59-.18Z" style="fill:#263238"></path><path d="M290,104.59a2,2,0,0,1-1.17.32,1.64,1.64,0,0,1-1.86-1.79v-2h-.77V100H287V98.76h1.44V100h1.24v1.11h-1.24v2a.58.58,0,0,0,.62.66,1,1,0,0,0,.59-.18Z" style="fill:#263238"></path><path d="M296.28,102.35a2.42,2.42,0,0,1-2.48,2.56,2,2,0,0,1-1.5-.6v2.32h-1.44V99.86h1.38v.57a1.94,1.94,0,0,1,1.56-.65A2.42,2.42,0,0,1,296.28,102.35Zm-1.47,0a1.27,1.27,0,1,0-1.26,1.37A1.25,1.25,0,0,0,294.81,102.35Z" style="fill:#263238"></path><path d="M296.76,104.37l.48-1a3.37,3.37,0,0,0,1.73.49c.66,0,.91-.18.91-.46,0-.81-3,0-3-2,0-.94.85-1.61,2.3-1.61a4.05,4.05,0,0,1,1.91.44l-.48,1a2.91,2.91,0,0,0-1.43-.36c-.65,0-.93.2-.93.46,0,.85,3,0,3,2,0,.92-.86,1.58-2.35,1.58A4.2,4.2,0,0,1,296.76,104.37Z" style="fill:#263238"></path><path d="M301.8,100.68a.9.9,0,0,1,1.79,0,.9.9,0,1,1-1.79,0Zm0,3.32a.9.9,0,0,1,1.79,0,.9.9,0,1,1-1.79,0Z" style="fill:#263238"></path><path d="M307.14,97.05h1.28l-3.05,8.71h-1.28Z" style="fill:#263238"></path><path d="M310.09,97.05h1.28l-3.05,8.71H307Z" style="fill:#263238"></path><path d="M319.34,99.86l-1.8,5h-1.39L315,101.74l-1.16,3.09h-1.39l-1.79-5h1.36l1.17,3.36,1.22-3.36h1.22l1.19,3.36,1.21-3.36Z" style="fill:#263238"></path><path d="M327.89,99.86l-1.81,5H324.7l-1.12-3.09-1.16,3.09H321l-1.8-5h1.36l1.18,3.36L323,99.86h1.22l1.18,3.36,1.21-3.36Z" style="fill:#263238"></path><path d="M336.43,99.86l-1.8,5h-1.39l-1.12-3.09L331,104.83h-1.39l-1.8-5h1.36l1.18,3.36,1.22-3.36h1.22l1.18,3.36,1.21-3.36Z" style="fill:#263238"></path><path d="M336.46,104a.9.9,0,0,1,1.79,0,.9.9,0,1,1-1.79,0Z" style="fill:#263238"></path><path d="M338.88,104a.9.9,0,0,1,1.79,0,.9.9,0,1,1-1.79,0Z" style="fill:#263238"></path><path d="M341.3,104a.9.9,0,0,1,1.8,0,.9.9,0,1,1-1.8,0Z" style="fill:#263238"></path><path d="M368.89,65.21c0,.15-15.64.26-34.93.26S299,65.36,299,65.21,314.67,65,334,65,368.89,65.07,368.89,65.21Z" style="fill:#263238"></path><path d="M396.35,324.38c0,.15-28.62.26-63.91.26s-63.92-.11-63.92-.26,28.61-.26,63.92-.26S396.35,324.24,396.35,324.38Z" style="fill:#e0e0e0"></path><path d="M396.35,313.42c0,.14-28.62.26-63.91.26s-63.92-.12-63.92-.26,28.61-.26,63.92-.26S396.35,313.27,396.35,313.42Z" style="fill:#e0e0e0"></path><path d="M396.35,302.45c0,.14-28.62.26-63.91.26s-63.92-.12-63.92-.26,28.61-.26,63.92-.26S396.35,302.3,396.35,302.45Z" style="fill:#e0e0e0"></path><path d="M396.35,291.48c0,.14-28.62.26-63.91.26s-63.92-.12-63.92-.26,28.61-.26,63.92-.26S396.35,291.34,396.35,291.48Z" style="fill:#e0e0e0"></path><path d="M396.35,280.51c0,.15-28.62.26-63.91.26s-63.92-.11-63.92-.26,28.61-.26,63.92-.26S396.35,280.37,396.35,280.51Z" style="fill:#e0e0e0"></path><path d="M396.35,269.54c0,.15-28.62.26-63.91.26s-63.92-.11-63.92-.26,28.61-.26,63.92-.26S396.35,269.4,396.35,269.54Z" style="fill:#e0e0e0"></path><path d="M396.35,258.58c0,.14-28.62.26-63.91.26s-63.92-.12-63.92-.26,28.61-.26,63.92-.26S396.35,258.43,396.35,258.58Z" style="fill:#e0e0e0"></path><path d="M396.35,247.61c0,.14-28.62.26-63.91.26s-63.92-.12-63.92-.26,28.61-.26,63.92-.26S396.35,247.46,396.35,247.61Z" style="fill:#e0e0e0"></path><path d="M396.35,236.64c0,.14-28.62.26-63.91.26s-63.92-.12-63.92-.26,28.61-.26,63.92-.26S396.35,236.5,396.35,236.64Z" style="fill:#e0e0e0"></path><path d="M396.35,225.67c0,.15-28.62.26-63.91.26s-63.92-.11-63.92-.26,28.61-.26,63.92-.26S396.35,225.53,396.35,225.67Z" style="fill:#e0e0e0"></path><path d="M396.35,214.7c0,.15-28.62.26-63.91.26s-63.92-.11-63.92-.26,28.61-.26,63.92-.26S396.35,214.56,396.35,214.7Z" style="fill:#e0e0e0"></path><path d="M396.35,203.74c0,.14-28.62.26-63.91.26s-63.92-.12-63.92-.26,28.61-.26,63.92-.26S396.35,203.59,396.35,203.74Z" style="fill:#e0e0e0"></path><path d="M396.35,192.77c0,.14-28.62.26-63.91.26s-63.92-.12-63.92-.26,28.61-.26,63.92-.26S396.35,192.62,396.35,192.77Z" style="fill:#e0e0e0"></path><path d="M396.35,181.8c0,.14-28.62.26-63.91.26s-63.92-.12-63.92-.26,28.61-.26,63.92-.26S396.35,181.66,396.35,181.8Z" style="fill:#e0e0e0"></path><path d="M396.35,170.83c0,.15-28.62.26-63.91.26s-63.92-.11-63.92-.26,28.61-.26,63.92-.26S396.35,170.69,396.35,170.83Z" style="fill:#e0e0e0"></path><path d="M396.35,159.86c0,.15-28.62.26-63.91.26s-63.92-.11-63.92-.26,28.61-.26,63.92-.26S396.35,159.72,396.35,159.86Z" style="fill:#e0e0e0"></path><path d="M396.35,148.9c0,.14-28.62.26-63.91.26s-63.92-.12-63.92-.26,28.61-.26,63.92-.26S396.35,148.75,396.35,148.9Z" style="fill:#e0e0e0"></path><path d="M396.35,137.93c0,.14-28.62.26-63.91.26s-63.92-.12-63.92-.26,28.61-.26,63.92-.26S396.35,137.78,396.35,137.93Z" style="fill:#e0e0e0"></path><path d="M396.35,127c0,.14-28.62.26-63.91.26s-63.92-.12-63.92-.26,28.61-.26,63.92-.26S396.35,126.82,396.35,127Z" style="fill:#e0e0e0"></path><path d="M396.35,335.35c0,.15-28.62.26-63.91.26s-63.92-.11-63.92-.26,28.61-.26,63.92-.26S396.35,335.21,396.35,335.35Z" style="fill:#e0e0e0"></path><path d="M396.35,346.32c0,.14-28.62.26-63.91.26s-63.92-.12-63.92-.26,28.61-.26,63.92-.26S396.35,346.18,396.35,346.32Z" style="fill:#e0e0e0"></path><path d="M396.35,357.29c0,.14-28.62.26-63.91.26s-63.92-.12-63.92-.26,28.61-.26,63.92-.26S396.35,357.14,396.35,357.29Z" style="fill:#e0e0e0"></path><rect x="265.24" y="122.96" width="162.4" height="181.17" rx="7.73" style="fill:#fff"></rect><path d="M419.9,304.13l.44,0a7.87,7.87,0,0,0,1.28-.19,7.75,7.75,0,0,0,4.23-2.65,7.9,7.9,0,0,0,1.57-3.35,29.67,29.67,0,0,0,.14-4.51c0-3.29,0-7.07,0-11.33,0-17.06-.05-41.73-.09-72.21,0-15.24,0-31.94,0-49.86q0-13.45,0-27.78a12.76,12.76,0,0,0-.28-3.51,7.16,7.16,0,0,0-1.67-3,7.41,7.41,0,0,0-2.89-2,8.87,8.87,0,0,0-3.53-.49H404.12l-131.13,0a7.52,7.52,0,0,0-6.75,4.24,8.4,8.4,0,0,0-.74,4.1V153q0,17,0,33.46c0,21.93,0,43.09,0,63.25q0,15.12,0,29.45,0,7.17,0,14.11c0,1.16,0,2.32,0,3.45a7.47,7.47,0,0,0,5.94,7,15.62,15.62,0,0,0,3.29.17H297.3l23.93,0,72.2.08,19.63.05,5.11,0c1.15,0,1.73,0,1.73,0l-1.73,0-5.11,0-19.63.05-72.2.09H274.71a17.57,17.57,0,0,1-3.38-.17,7.95,7.95,0,0,1-6.3-7.45c0-1.16,0-2.3,0-3.47q0-6.94,0-14.11,0-14.32,0-29.45c0-20.16,0-41.32,0-63.25V131.56a8.89,8.89,0,0,1,.79-4.32A8.06,8.06,0,0,1,273,122.7l131.13,0H419a9.14,9.14,0,0,1,3.69.53,7.67,7.67,0,0,1,3.07,2.1,7.79,7.79,0,0,1,1.78,3.23,13.17,13.17,0,0,1,.29,3.63q0,14.33,0,27.78c0,17.92,0,34.62,0,49.86,0,30.48-.06,55.15-.08,72.21q0,6.39,0,11.33a30,30,0,0,1-.17,4.54,8.06,8.06,0,0,1-1.62,3.39,7.68,7.68,0,0,1-4.3,2.63,7.14,7.14,0,0,1-1.29.16Z" style="fill:#263238"></path><path d="M427.82,128.53a8.2,8.2,0,0,0-5-5.5,9.25,9.25,0,0,0-3.79-.55l-146,0a8.22,8.22,0,0,0-7.44,4.67,8.87,8.87,0,0,0-.82,4.44l0,161.7v1.22c0,.75,0,1.5,0,2.26a8.48,8.48,0,0,0,.94,3.49,8.24,8.24,0,0,0,5.56,4.19,9.4,9.4,0,0,0,2,.18h.53q.44,0,.87,0l118.72-.12,19.63-.05,5.11,0,1.74,0h.43a7.35,7.35,0,0,0,1.35-.17,7.82,7.82,0,0,0,4.43-2.72,8.32,8.32,0,0,0,1.68-3.5,16.53,16.53,0,0,0,.16-3.11c0-.48,0-1,0-1.47l.1-83.54,0-49.86V131.71A11.08,11.08,0,0,0,427.82,128.53ZM265.24,208.22V131.56a8.55,8.55,0,0,1,.77-4.22,7.74,7.74,0,0,1,6.91-4.39h0a7.74,7.74,0,0,0-6.9,4.38,8.4,8.4,0,0,0-.77,4.21Zm161.94,89.64a7.69,7.69,0,0,1-1.52,3.24,7.48,7.48,0,0,1-4.09,2.56,7.62,7.62,0,0,1-1.25.19l-.42,0c-.11,0-.69,0-1.73,0l-24.74-.08-72.2-.08-46.51,0h-.9a10.1,10.1,0,0,1-2.35-.16,7.23,7.23,0,0,1-5.74-6.8c0-.73,0-1.47,0-2.21v-1.24l0-161.7a7.89,7.89,0,0,1,.72-4,7.22,7.22,0,0,1,6.45-4.1H273l146.06,0a8.36,8.36,0,0,1,3.43.48,7.28,7.28,0,0,1,4.41,4.85,10.07,10.07,0,0,1,.27,2.93l0,75.63.09,74.73,0,11.32c0,.51,0,1,0,1.49A15.85,15.85,0,0,1,427.18,297.86Z" style="fill:#263238"></path><path d="M286.69,250.47h1.42v5h3.07v1.16h-4.49Z" style="fill:#263238"></path><path d="M291.72,250.47a.78.78,0,0,1,.85-.76.76.76,0,0,1,.85.73.85.85,0,0,1-1.7,0Zm.17,1.42h1.36v4.71h-1.36Z" style="fill:#263238"></path><path d="M299.34,253.9v2.7H298v-2.49c0-.76-.35-1.11-1-1.11s-1.13.4-1.13,1.27v2.33h-1.36v-4.71h1.3v.55a2.08,2.08,0,0,1,1.56-.62A1.84,1.84,0,0,1,299.34,253.9Z" style="fill:#263238"></path><path d="M302.61,254.75l-.66.65v1.2h-1.37v-6.5H302v3.68l2-1.89h1.62l-2,2,2.14,2.72h-1.66Z" style="fill:#263238"></path><path d="M283.72,144.91l.46-1a3.43,3.43,0,0,0,1.95.62c.8,0,1.13-.27,1.13-.63,0-1.11-3.42-.35-3.42-2.54,0-1,.8-1.84,2.48-1.84a3.94,3.94,0,0,1,2.05.53l-.42,1a3.38,3.38,0,0,0-1.64-.46c-.81,0-1.12.3-1.12.67,0,1.09,3.43.34,3.43,2.51,0,1-.82,1.82-2.5,1.82A4.14,4.14,0,0,1,283.72,144.91Z" style="fill:#263238"></path><path d="M294.09,142.9v2.59h-1.31V143.1c0-.73-.34-1.07-.92-1.07s-1.09.39-1.09,1.22v2.24h-1.31v-6.25h1.31v2.19a2,2,0,0,1,1.44-.54A1.78,1.78,0,0,1,294.09,142.9Z" style="fill:#263238"></path><path d="M299.29,142.91v2.58h-1.23v-.56a1.5,1.5,0,0,1-1.38.63c-1.07,0-1.7-.59-1.7-1.37s.57-1.36,1.95-1.36h1c0-.56-.33-.89-1-.89a2.2,2.2,0,0,0-1.31.42l-.47-.92a3.53,3.53,0,0,1,2-.55C298.49,140.89,299.29,141.53,299.29,142.91ZM298,144.06v-.46h-.9c-.61,0-.81.22-.81.53s.28.55.74.55A1,1,0,0,0,298,144.06Z" style="fill:#263238"></path><path d="M303.29,140.89v1.22l-.3,0a1.11,1.11,0,0,0-1.2,1.26v2.14h-1.32V141h1.26v.6A1.83,1.83,0,0,1,303.29,140.89Z" style="fill:#263238"></path><path d="M308.44,143.6H305a1.22,1.22,0,0,0,1.3.91,1.58,1.58,0,0,0,1.14-.44l.69.76a2.64,2.64,0,0,1-4.45-1.6,2.31,2.31,0,0,1,2.42-2.34,2.24,2.24,0,0,1,2.35,2.35C308.46,143.34,308.45,143.49,308.44,143.6Zm-3.45-.77h2.24a1.14,1.14,0,0,0-2.24,0Z" style="fill:#263238"></path><rect x="276.59" y="262.79" width="138.64" height="26.26" rx="12.56" style="fill:#ebebeb"></rect><circle cx="418.08" cy="128.84" r="17.76" style="fill:#0077B5"></circle><rect x="416.74" y="120.29" width="3.56" height="15.95" transform="translate(213.28 -258.37) rotate(45)" style="fill:#fff"></rect><rect x="416.74" y="120.29" width="3.56" height="15.95" transform="translate(31.88 333.5) rotate(-45)" style="fill:#fff"></rect><rect x="393.87" y="273.74" width="7.66" height="7.66" rx="1.16" style="fill:#263238"></rect><rect x="397.18" y="270.43" width="7.66" height="7.66" rx="1.16" style="fill:#ebebeb"></rect><path d="M403.68,278.6h-5.34a1.67,1.67,0,0,1-1.66-1.67v-5.34a1.67,1.67,0,0,1,1.66-1.66h5.34a1.66,1.66,0,0,1,1.66,1.66v5.34A1.66,1.66,0,0,1,403.68,278.6Zm-5.34-7.67a.67.67,0,0,0-.66.66v5.34a.67.67,0,0,0,.66.67h5.34a.66.66,0,0,0,.66-.67v-5.34a.66.66,0,0,0-.66-.66Z" style="fill:#263238"></path><path d="M296.1,276v2.85h-1.44V276.2c0-.8-.37-1.17-1-1.17s-1.19.42-1.19,1.34v2.46H291V272h1.44v2.4a2.18,2.18,0,0,1,1.58-.59A2,2,0,0,1,296.1,276Z" style="fill:#263238"></path><path d="M300.61,278.59a2.06,2.06,0,0,1-1.17.31,1.64,1.64,0,0,1-1.86-1.78v-2.05h-.77V274h.77v-1.21H299V274h1.24v1.11H299v2a.58.58,0,0,0,.62.65,1,1,0,0,0,.58-.18Z" style="fill:#263238"></path><path d="M304.52,278.59a2.06,2.06,0,0,1-1.17.31,1.64,1.64,0,0,1-1.86-1.78v-2.05h-.77V274h.77v-1.21h1.44V274h1.24v1.11h-1.24v2a.58.58,0,0,0,.62.65,1,1,0,0,0,.59-.18Z" style="fill:#263238"></path><path d="M310.76,276.34a2.42,2.42,0,0,1-2.48,2.56,1.92,1.92,0,0,1-1.5-.6v2.32h-1.44v-6.77h1.37v.58a1.94,1.94,0,0,1,1.57-.65A2.42,2.42,0,0,1,310.76,276.34Zm-1.47,0a1.27,1.27,0,1,0-1.26,1.38A1.25,1.25,0,0,0,309.29,276.34Z" style="fill:#263238"></path><path d="M311.24,278.36l.48-1a3.46,3.46,0,0,0,1.73.48c.66,0,.91-.18.91-.45,0-.82-3,0-3-2,0-.95.85-1.61,2.3-1.61a4,4,0,0,1,1.91.43l-.48,1a2.83,2.83,0,0,0-1.43-.37c-.65,0-.93.2-.93.46,0,.85,3,0,3,2,0,.92-.86,1.58-2.35,1.58A4.2,4.2,0,0,1,311.24,278.36Z" style="fill:#263238"></path><path d="M316.27,274.67a.9.9,0,0,1,1.8,0,.9.9,0,1,1-1.8,0Zm0,3.32a.9.9,0,0,1,1.8,0,.9.9,0,1,1-1.8,0Z" style="fill:#263238"></path><path d="M321.62,271h1.28l-3,8.71h-1.28Z" style="fill:#263238"></path><path d="M324.57,271h1.28l-3.05,8.71h-1.28Z" style="fill:#263238"></path><path d="M333.82,273.85l-1.8,5h-1.39l-1.12-3.09-1.15,3.09H327l-1.79-5h1.36l1.17,3.37,1.22-3.37h1.22l1.19,3.37,1.21-3.37Z" style="fill:#263238"></path><path d="M342.37,273.85l-1.81,5h-1.38l-1.12-3.09-1.16,3.09h-1.39l-1.79-5h1.36l1.18,3.37,1.22-3.37h1.22l1.18,3.37,1.21-3.37Z" style="fill:#263238"></path><path d="M350.91,273.85l-1.8,5h-1.39l-1.12-3.09-1.15,3.09h-1.39l-1.8-5h1.36l1.18,3.37,1.22-3.37h1.22l1.18,3.37,1.21-3.37Z" style="fill:#263238"></path><path d="M350.94,278a.9.9,0,0,1,1.79,0,.9.9,0,1,1-1.79,0Z" style="fill:#263238"></path><path d="M353.36,278a.9.9,0,0,1,1.79,0,.9.9,0,1,1-1.79,0Z" style="fill:#263238"></path><path d="M355.78,278a.9.9,0,0,1,1.8,0,.9.9,0,1,1-1.8,0Z" style="fill:#263238"></path><path d="M424,239.85c0,.15-34.46.27-77,.27s-76.95-.12-76.95-.27,34.45-.26,76.95-.26S424,239.71,424,239.85Z" style="fill:#e0e0e0"></path><circle cx="344.38" cy="170.75" r="13.95" style="fill:#0077B5"></circle><circle cx="389.14" cy="170.75" r="13.95" style="fill:#0077B5"></circle><circle cx="299.03" cy="170.75" r="13.95" style="fill:#0077B5"></circle><circle cx="344.61" cy="212.43" r="13.95" style="fill:#0077B5"></circle><path d="M336.76,212.76l3.34,1,2,4,2-1.6,3,2.38a.91.91,0,0,0,1.12-.58c.31-.81,2.79-10.57,2.79-10.57s.34-1-.89-.65l-13.24,4.94a.65.65,0,0,0-.42.42A.44.44,0,0,0,336.76,212.76Z" style="fill:#fff"></path><path d="M340.82,213.43l1.39,3.28s.23-2,.26-2l5.8-5.44Z" style="fill:#0077B5"></path><circle cx="389.14" cy="212.06" r="13.95" style="fill:#0077B5"></circle><circle cx="299.03" cy="212.06" r="13.95" style="fill:#0077B5"></circle><path d="M291.85,175.26a8.38,8.38,0,0,0,12.9-7.45,5.74,5.74,0,0,0,1.47-1.52,6,6,0,0,1-1.69.46,2.93,2.93,0,0,0,1.3-1.63,5.85,5.85,0,0,1-1.88.71,2.95,2.95,0,0,0-5,2.7,8.36,8.36,0,0,1-6.08-3.09,3,3,0,0,0,.91,3.94,2.92,2.92,0,0,1-1.34-.37,3,3,0,0,0,2.37,2.93,2.83,2.83,0,0,1-1.33.05,2.93,2.93,0,0,0,2.75,2A5.9,5.9,0,0,1,291.85,175.26Z" style="fill:#fff"></path><path d="M342.21,178.19h3v-7.51h2.09l.22-2.51h-2.31v-1.43c0-.59.11-.83.69-.83h1.62v-2.6h-2.08c-2.23,0-3.23,1-3.23,2.86v2h-1.56v2.54h1.56Z" style="fill:#fff"></path><path d="M397.51,169.79a7.8,7.8,0,0,0-15.58-.14V170a7.65,7.65,0,0,0,1.11,4l-1.4,4.15,4.31-1.37a7.88,7.88,0,0,0,3.77,1,7.76,7.76,0,0,0,7.8-7.73A1.27,1.27,0,0,0,397.51,169.79Zm-7.79,6.7a6.44,6.44,0,0,1-3.6-1.08l-2.52.81.81-2.42a6.45,6.45,0,0,1-1.24-3.81c0-.22,0-.43,0-.64a6.55,6.55,0,0,1,13.05.13,4.24,4.24,0,0,1,0,.51A6.54,6.54,0,0,1,389.72,176.49Z" style="fill:#fff;fill-rule:evenodd"></path><path d="M393.29,171.55c-.19-.1-1.13-.56-1.3-.62s-.31-.09-.43.1-.5.61-.61.74-.22.14-.41,0a5,5,0,0,1-1.54-.94,5.53,5.53,0,0,1-1.06-1.31c-.11-.19,0-.29.08-.38s.19-.23.29-.34l.07-.09.12-.22a.37.37,0,0,0,0-.34l-.59-1.4c-.15-.38-.31-.32-.43-.32l-.36,0a.7.7,0,0,0-.51.24,2.1,2.1,0,0,0-.67,1.58,2.38,2.38,0,0,0,.1.65,4.18,4.18,0,0,0,.68,1.31A7.74,7.74,0,0,0,390,173.1c2,.75,2,.5,2.3.47a1.93,1.93,0,0,0,1.29-.9,1.53,1.53,0,0,0,.11-.9C393.61,171.69,393.48,171.64,393.29,171.55Z" style="fill:#fff;fill-rule:evenodd"></path><path d="M299,206.24c1.84,0,2.06,0,2.78,0a4,4,0,0,1,1.28.23,2.22,2.22,0,0,1,.79.52,2.07,2.07,0,0,1,.51.79,3.57,3.57,0,0,1,.24,1.27c0,.73,0,.94,0,2.78s0,2,0,2.78a3.57,3.57,0,0,1-.24,1.27,2.07,2.07,0,0,1-.51.79,2.22,2.22,0,0,1-.79.52,4,4,0,0,1-1.28.23c-.72,0-.94,0-2.78,0s-2,0-2.77,0a4,4,0,0,1-1.28-.23,2.22,2.22,0,0,1-.79-.52,2.07,2.07,0,0,1-.51-.79,3.57,3.57,0,0,1-.24-1.27c0-.73,0-1,0-2.78s0-2.05,0-2.78a3.57,3.57,0,0,1,.24-1.27,2.07,2.07,0,0,1,.51-.79,2.22,2.22,0,0,1,.79-.52,4,4,0,0,1,1.28-.23c.72,0,.94,0,2.77,0m0-1.24c-1.86,0-2.1,0-2.83,0a5,5,0,0,0-1.67.32,3.41,3.41,0,0,0-1.22.79,3.46,3.46,0,0,0-.79,1.22,5.2,5.2,0,0,0-.32,1.67c0,.73,0,1,0,2.83s0,2.1,0,2.83a5.25,5.25,0,0,0,.32,1.67,3.46,3.46,0,0,0,.79,1.22,3.41,3.41,0,0,0,1.22.79,5,5,0,0,0,1.67.32c.73,0,1,0,2.83,0s2.1,0,2.84,0a5,5,0,0,0,1.67-.32,3.29,3.29,0,0,0,1.21-.79,3.49,3.49,0,0,0,.8-1.22,5.25,5.25,0,0,0,.32-1.67c0-.73,0-1,0-2.83s0-2.1,0-2.83a5.2,5.2,0,0,0-.32-1.67,3.49,3.49,0,0,0-.8-1.22,3.29,3.29,0,0,0-1.21-.79,5,5,0,0,0-1.67-.32c-.74,0-1,0-2.84,0" style="fill:#fff"></path><path d="M299,208.34a3.53,3.53,0,1,0,3.53,3.53,3.54,3.54,0,0,0-3.53-3.53m0,5.82a2.29,2.29,0,1,1,2.29-2.29,2.3,2.3,0,0,1-2.29,2.29" style="fill:#fff"></path><path d="M303.53,208.2a.83.83,0,1,1-.83-.82.83.83,0,0,1,.83.82" style="fill:#fff"></path><path d="M395.89,217.59h-13.5V207.3h13.5Zm-12.52-1H394.9v-8.32H383.37Z" style="fill:#fff"></path><polygon points="389.34 213.55 382.57 208.18 383.18 207.41 389.32 212.28 395.08 207.42 395.71 208.17 389.34 213.55" style="fill:#fff"></polygon><rect x="381.83" y="213.78" width="7.08" height="0.98" transform="translate(-38.22 336.72) rotate(-45.2)" style="fill:#fff"></rect><rect x="392.71" y="210.97" width="0.98" height="6.91" transform="matrix(0.77, -0.63, 0.63, 0.77, -46.84, 297.81)" style="fill:#fff"></rect><path d="M277.41,68.39a1,1,0,0,1-.63-.22l-5.91-4.85a1,1,0,0,1-.37-.76,1,1,0,0,1,.35-.77l5.91-5.09a1,1,0,1,1,1.3,1.52l-5,4.31,5,4.09a1,1,0,0,1,.13,1.41A1,1,0,0,1,277.41,68.39Z" style="fill:#263238"></path></g><g id="freepik--speech-bubble--inject-62"><path d="M139.48,235.75l-13.9-3.12a40.69,40.69,0,1,1,10.85-9.75h0Z" style="fill:#fff"></path><path d="M139.48,235.75s-.08-.29-.22-.85-.34-1.4-.61-2.47c-.52-2.18-1.3-5.38-2.31-9.54l.17.06v0a.11.11,0,0,1-.16,0,.12.12,0,0,1,0-.14,40.58,40.58,0,0,0,7.91-18.36,39.74,39.74,0,0,0,.5-6.28,45.05,45.05,0,0,0-.59-6.74,40.61,40.61,0,0,0-31.71-33A41.24,41.24,0,0,0,94,159a39,39,0,0,0-17,9.31,37.53,37.53,0,0,0-3.4,3.51,19.66,19.66,0,0,0-1.51,1.9c-.47.66-1,1.28-1.42,2l-1.25,2.05-.62,1-.52,1.08c-.35.71-.69,1.43-1,2.14s-.56,1.48-.84,2.21a40.44,40.44,0,0,0,27.08,52.74l1.67.43a10.83,10.83,0,0,0,1.65.36l3.28.51a55.8,55.8,0,0,0,6.28.18,40.52,40.52,0,0,0,19.17-5.89.14.14,0,0,1,.09,0l10.29,2.38,2.66.63.92.22-.88-.18L136,235l-10.4-2.26h.08a40.57,40.57,0,0,1-19.28,6,56.62,56.62,0,0,1-6.33-.16l-3.31-.5a11.07,11.07,0,0,1-1.67-.36l-1.68-.43A40.74,40.74,0,0,1,65.9,184c.29-.75.52-1.52.86-2.24l1-2.18.52-1.09.63-1,1.27-2.08c.44-.69,1-1.32,1.44-2a21.47,21.47,0,0,1,1.52-1.93,37.29,37.29,0,0,1,3.45-3.55,39.32,39.32,0,0,1,17.18-9.43,41.86,41.86,0,0,1,18.73-.56,41.19,41.19,0,0,1,27,19.45,40.6,40.6,0,0,1,5,14,45.76,45.76,0,0,1,.57,6.8,40.58,40.58,0,0,1-8.6,24.78l-.16-.16h0a.1.1,0,0,1,.15,0l0,0c.95,4.21,1.69,7.44,2.19,9.65.25,1.07.43,1.88.56,2.45S139.48,235.75,139.48,235.75Z" style="fill:#263238"></path><path d="M114.8,209.87h-21a1.36,1.36,0,0,1-1.36-1.36v-16a1.36,1.36,0,0,1,1.36-1.36h4.65a1.36,1.36,0,1,1,0,2.72H95.16v13.28h18.28V193.87h-3.37a1.36,1.36,0,1,1,0-2.72h4.73a1.36,1.36,0,0,1,1.36,1.36v16A1.36,1.36,0,0,1,114.8,209.87Z" style="fill:#0077B5"></path><path d="M104.3,203.33a1.36,1.36,0,0,1-1.36-1.36V182.36a1.36,1.36,0,1,1,2.72,0V202A1.36,1.36,0,0,1,104.3,203.33Z" style="fill:#0077B5"></path><path d="M108.37,189a1.35,1.35,0,0,1-1.08-.53l-3.05-3.94-3.43,4a1.36,1.36,0,1,1-2.06-1.77l4.52-5.27a1.36,1.36,0,0,1,2.11.05l4.06,5.27a1.35,1.35,0,0,1-1.07,2.19Z" style="fill:#0077B5"></path></g><g id="freepik--Character--inject-62"><path d="M259,328.79c-12.58,14.66-13.91,30.5-18.93,45.33-8.19,24.22-12.62,48.9-8,74.05,10.31,5.07,22.41,0,33.82-1.38,20.25-2.41,40.25,7.42,60.61,6.39,4.21-.22,8.66-1,11.78-3.86,5-4.53,4.75-12.21,5.07-18.93C344.75,399.5,364.87,372.81,373,343c.47-1.72.86-3.69-.12-5.18s-2.68-1.84-4.29-2.16c-17.05-3.39-34.63-1.82-52-1.22-16.5.57-33.55.13-48.8-6a11.09,11.09,0,0,0-6.56-.62A4.29,4.29,0,0,0,259,328.79Z" style="fill:#455a64"></path><path d="M277.81,372.38a4,4,0,0,1,.37-.52l1.12-1.44c.49-.63,1.1-1.38,1.87-2.21s1.6-1.81,2.63-2.78l1.59-1.56c.56-.54,1.19-1.05,1.81-1.61,1.23-1.13,2.65-2.21,4.13-3.37A72.63,72.63,0,0,1,313,347.74c1.81-.53,3.51-1.07,5.15-1.42.81-.18,1.59-.39,2.35-.53l2.2-.39c1.39-.28,2.67-.39,3.79-.53s2.09-.21,2.88-.25l1.82-.08a2.84,2.84,0,0,1,.64,0,4.2,4.2,0,0,1-.63.1l-1.81.18c-.79.06-1.75.15-2.86.33s-2.39.3-3.77.6l-2.18.42c-.75.15-1.52.37-2.33.56-1.62.36-3.31.91-5.1,1.45a82.48,82.48,0,0,0-11.19,4.68,81.64,81.64,0,0,0-10.3,6.41c-1.48,1.14-2.9,2.2-4.14,3.31-.62.54-1.25,1-1.81,1.57l-1.61,1.53c-1.05.95-1.89,1.91-2.67,2.72s-1.42,1.53-1.93,2.14l-1.2,1.37A2.82,2.82,0,0,1,277.81,372.38Z" style="fill:#263238"></path><path d="M286.76,294s-27.42-32.72-37.85-32.72c0,0-6.59,11.61-6.81,17.93s21.1,36,21.1,36Z" style="fill:#0077B5"></path><path d="M220.71,260.94l28.2.29,8.71,43.44s-4.68,45.28-8.17,56.84S238,392,238,392l-69.49-15.37-2.08-50.17-8.51-47.1,29.69-11.74Z" style="fill:#0077B5"></path><path d="M138.19,321c0-1.75,9.71-37.49,19.74-41.64l7.75,12,3.54,32.53Z" style="fill:#0077B5"></path><path d="M257.29,282.36a4.92,4.92,0,0,1,0,1.13c0,.84-.07,1.86-.11,3.07-.1,2.6-.18,6.19-.14,10.15s.23,7.54.39,10.13c.08,1.21.14,2.24.19,3.08a4.9,4.9,0,0,1,0,1.13,4.64,4.64,0,0,1-.22-1.11c-.1-.72-.23-1.77-.35-3.07-.26-2.59-.5-6.18-.55-10.16s.1-7.57.29-10.17c.1-1.29.19-2.34.28-3.07A4.4,4.4,0,0,1,257.29,282.36Z" style="fill:#263238"></path><path d="M166.11,292.72A5.79,5.79,0,0,1,166,294c-.1.79-.24,1.94-.39,3.37a87.4,87.4,0,0,0,.49,22.31c.21,1.42.4,2.56.54,3.35a5.13,5.13,0,0,1,.16,1.24,6.28,6.28,0,0,1-.36-1.2c-.2-.78-.44-1.91-.7-3.33a72.26,72.26,0,0,1-.49-22.42c.19-1.42.39-2.57.55-3.36A5.5,5.5,0,0,1,166.11,292.72Z" style="fill:#263238"></path><path d="M226.34,373.73a7.62,7.62,0,0,1-1-1.08l-2.55-3c-2.16-2.58-5.15-6.12-8.52-10s-6.49-7.29-8.76-9.76l-2.68-2.94a7.37,7.37,0,0,1-.93-1.12,7.32,7.32,0,0,1,1.08,1c.67.65,1.63,1.62,2.8,2.82,2.34,2.42,5.5,5.82,8.88,9.68s6.33,7.45,8.41,10.08c1,1.32,1.87,2.4,2.43,3.16A7.81,7.81,0,0,1,226.34,373.73Z" style="fill:#263238"></path><path d="M232.23,217.36a43.6,43.6,0,0,1-13.91,32.92q-3.12-9-6.22-18" style="fill:#263238"></path><path d="M185.34,181.52c5.34-2.92,11.79-3.34,17.76-2.15s11.52,3.9,16.79,6.95a27.17,27.17,0,0,1,8,6.26c3.87,4.87,7.71,12.88,8.08,19.1.3,5-1.62,17.62-3.75,22.19-1.95,4.19-11.08,7.38-15.59,8.42L175.32,194.2A20.89,20.89,0,0,1,185.34,181.52Z" style="fill:#263238"></path><path d="M178.21,188l9.92-1.77c-5.42,12.9-6.89,42.41-10,56.06-3.65-5.3-12.14-21.45-11.69-27.87S166.44,186.91,178.21,188Z" style="fill:#263238"></path><path d="M172.55,209c.64-9.9,7.23-22,17.09-21l22.83,5.82a17,17,0,0,1,12.74,15.59c0,.38.06-.08.06.2l-5.1,59.11L203,302.8h0l-15.13-35.67c0-4.82,0-8.66,0-8.63s-12.64-2.13-15.23-18.64C171.39,231.65,171.83,220,172.55,209Z" style="fill:#ffbe9d"></path><path d="M177.51,222.46a2.11,2.11,0,0,0,2,2.14,2,2,0,0,0,2.19-1.9,2.11,2.11,0,0,0-2-2.14A2,2,0,0,0,177.51,222.46Z" style="fill:#263238"></path><path d="M175,215.51c.27.27,1.87-.91,4.15-.9s4,1.15,4.19.88-.14-.63-.87-1.16a5.79,5.79,0,0,0-3.35-1,5.48,5.48,0,0,0-3.3,1.06C175.13,214.88,174.9,215.38,175,215.51Z" style="fill:#263238"></path><path d="M198.41,222.46a2.11,2.11,0,0,0,2,2.14,2,2,0,0,0,2.18-1.9,2.11,2.11,0,0,0-2-2.14A2,2,0,0,0,198.41,222.46Z" style="fill:#263238"></path><path d="M196.66,215.51c.26.27,1.87-.91,4.15-.9s3.94,1.15,4.19.88-.14-.63-.87-1.16a5.85,5.85,0,0,0-3.36-1,5.5,5.5,0,0,0-3.3,1.06C196.77,214.88,196.53,215.38,196.66,215.51Z" style="fill:#263238"></path><path d="M189.54,233.4a15.09,15.09,0,0,0-3.7-.68c-.58-.06-1.13-.18-1.23-.57a3,3,0,0,1,.39-1.73l1.73-4.42c2.4-6.3,4.15-11.49,3.89-11.58s-2.41,4.94-4.81,11.24l-1.66,4.45a3.4,3.4,0,0,0-.31,2.28,1.46,1.46,0,0,0,1,.85,3.41,3.41,0,0,0,1,.14A15,15,0,0,0,189.54,233.4Z" style="fill:#263238"></path><path d="M209.8,252.63s-5.37,11.33-21.89,9.75V258.5A41.68,41.68,0,0,0,209.8,252.63Z" style="fill:#eb996e"></path><path d="M197.37,207.27c.23.62,2.5.34,5.17.66s4.84,1.06,5.19.51c.16-.27-.21-.85-1.08-1.45a9,9,0,0,0-7.9-.89C197.77,206.49,197.28,207,197.37,207.27Z" style="fill:#263238"></path><path d="M175.77,208.54c.4.52,2,0,3.85,0s3.49.36,3.86-.18c.16-.27-.09-.79-.79-1.28a5.27,5.27,0,0,0-3.13-.85,5.34,5.34,0,0,0-3.08,1C175.81,207.75,175.59,208.28,175.77,208.54Z" style="fill:#263238"></path><path d="M177,194a7.28,7.28,0,0,1,6.41-4.11,14.17,14.17,0,0,1,7.62,2.22c9.83,5.68,14.88,19.41,24.59,25.29,2.39,1.44,5.5.12,7.53,2s3.35,5,2.23,7.54a23,23,0,0,0,3.37-5.7,7.81,7.81,0,0,0-.27-6.44c-.84-1.45-2.33-2.57-2.73-4.2-.36-1.43.2-2.93.14-4.41a9.56,9.56,0,0,0-1.51-4.21c-3.8-6.73-9-12.82-15.78-16.6a28,28,0,0,0-14.49-3.75,21.38,21.38,0,0,0-13.78,5.47c-2.17,2-4.46,4.12-3.33,6.87" style="fill:#263238"></path><path d="M223,221.44c.17-.47,8.78-3.58,8.9,5.57.11,8.89-8.87,7.14-8.88,6.89S223,221.44,223,221.44Z" style="fill:#ffbe9d"></path><path d="M225.68,230.5s.15.11.42.23a1.56,1.56,0,0,0,1.16,0c.93-.35,1.71-1.85,1.74-3.45a5.27,5.27,0,0,0-.46-2.22,1.79,1.79,0,0,0-1.17-1.18.79.79,0,0,0-.91.44c-.12.25-.06.42-.11.44s-.19-.15-.12-.52a1,1,0,0,1,.34-.56,1.2,1.2,0,0,1,.85-.23,2.2,2.2,0,0,1,1.64,1.36,5.36,5.36,0,0,1,.56,2.48c0,1.79-1,3.47-2.23,3.86a1.69,1.69,0,0,1-1.42-.22C225.7,230.72,225.65,230.52,225.68,230.5Z" style="fill:#eb996e"></path><path d="M226.48,216.87a3.89,3.89,0,0,1-.53-.3c-.34-.21-.87-.5-1.49-.95a29.56,29.56,0,0,1-4.8-4.37,82.74,82.74,0,0,1-5.87-7.62,70,70,0,0,0-7.34-9.14,28.52,28.52,0,0,0-4.74-3.74,23,23,0,0,0-5.11-2.32,25.48,25.48,0,0,0-9.42-1.16,24.21,24.21,0,0,0-6.31,1.24c-.73.22-1.27.47-1.65.61a3.52,3.52,0,0,1-.58.21,3.33,3.33,0,0,1,.55-.28,15.31,15.31,0,0,1,1.63-.69,23,23,0,0,1,6.34-1.37,25,25,0,0,1,9.55,1.08,23.34,23.34,0,0,1,5.21,2.34,28,28,0,0,1,4.81,3.79,67.74,67.74,0,0,1,7.36,9.21,92.12,92.12,0,0,0,5.78,7.65,33,33,0,0,0,4.68,4.44c.61.46,1.12.76,1.44,1A3.25,3.25,0,0,1,226.48,216.87Z" style="fill:#455a64"></path><path d="M224.25,219.39c.14,2.42.25,5-.87,7.15s-3.95,3.62-6.07,2.42c-1.72-1-2.23-3.19-2.53-5.16-.84-5.66-1.22-11.38-2.12-17Z" style="fill:#263238"></path><path d="M195.14,237.72a4.51,4.51,0,0,1,.69,4,4.46,4.46,0,0,1-2.89,2.86,2.55,2.55,0,0,1-1.66,0,3.65,3.65,0,0,1-1.76-2.3c-.31-.76-.62-1.53-.92-2.3a1,1,0,0,1-.09-.8,1,1,0,0,1,.75-.44l5.7-1.38" style="fill:#eb996e"></path><path d="M191.4,244.35A5.11,5.11,0,0,0,194,244a4,4,0,0,0,2.27-1.84,3.14,3.14,0,0,0,.35-1.77,5,5,0,0,0-.46-1.82,4.62,4.62,0,0,0-1.07-1.49l-.15-.14-.19.07c-3.78,1.33-6.73,2-6.7,2.17s3.07-.24,6.92-1.54l-.34-.07a4.38,4.38,0,0,1,.91,1.28,3.67,3.67,0,0,1,.17,3,3.75,3.75,0,0,1-1.89,1.68C192.4,244.15,191.38,244.22,191.4,244.35Z" style="fill:#263238"></path><path d="M179.22,189.73c0,.05.79-.15,2.21-.19a15.23,15.23,0,0,1,5.88,1.07,19.94,19.94,0,0,1,3.69,1.9,38.94,38.94,0,0,1,3.8,2.91,45.5,45.5,0,0,1,7.45,8c1.13,1.59,2.13,3.22,3.21,4.73a23.11,23.11,0,0,0,3.57,4,39.23,39.23,0,0,0,7.51,5c2.27,1.21,4.18,2.05,5.49,2.63l1.52.65a2.36,2.36,0,0,0,.54.19,2.62,2.62,0,0,0-.5-.28l-1.48-.74c-1.29-.63-3.16-1.52-5.4-2.76a41.19,41.19,0,0,1-7.38-5.06,22.67,22.67,0,0,1-3.47-4c-1.06-1.49-2.06-3.12-3.2-4.73a45,45,0,0,0-7.56-8.08,39.52,39.52,0,0,0-3.87-2.91,19.89,19.89,0,0,0-3.79-1.88,14.67,14.67,0,0,0-6-.93,10.35,10.35,0,0,0-1.64.22A3.5,3.5,0,0,0,179.22,189.73Z" style="fill:#455a64"></path><path d="M224.49,213.89a4,4,0,0,0,.79.54l2.25,1.32.76.43a2.27,2.27,0,0,0,1,.32.89.89,0,0,0,.6-.14.77.77,0,0,0,.34-.58,2,2,0,0,0-.42-1.13l-2.62-4.18-.35.32a9.14,9.14,0,0,0,2.86,1.43,8.94,8.94,0,0,0,3.18.37,2.59,2.59,0,0,0,.81-.13,1.12,1.12,0,0,0,.69-.6,1,1,0,0,0-.15-.9,4.06,4.06,0,0,0-.51-.56,18.85,18.85,0,0,1-3-3.82,32.14,32.14,0,0,1-1.92-4.09,4.71,4.71,0,0,0,.28,1.19,16.06,16.06,0,0,0,1.34,3.08,17.85,17.85,0,0,0,3,4c.33.31.66.67.53,1s-.61.42-1.08.43a9,9,0,0,1-5.72-1.71l-1.06-.78.71,1.11,2.67,4.15a1.65,1.65,0,0,1,.37.87c0,.25-.22.4-.51.38a4.56,4.56,0,0,1-1.6-.66l-2.32-1.2A4.35,4.35,0,0,0,224.49,213.89Z" style="fill:#455a64"></path><g style="opacity:0.30000000000000004"><path d="M168.48,344.29c2.49-8.28,7.1-16.28,14.43-20.87,6-3.75,13.25-4.91,20.31-5.17,12.78-.46,25.52,1.76,37.87,5.08,19.41,5.21,38.44,13.37,53.41,26.78l3.62,2.62c-11.85,3.43-24.58.86-36.41-2.67s-23.57-8.05-35.91-8.53c-7.37-.29-15,.86-22-1.47-2.84-.95-5.66-2.48-8.64-2.14-3.55.39-6.23,3.29-8.56,6l-22.33,25.93C165.37,361.27,166,352.57,168.48,344.29Z"></path></g><path d="M284.81,295.71s25.08,28.35,27,38.39,0,14.39-8.73,17.67-66.54-18.33-66.54-18.33l9.82-16.8,31.11,6.11L266,312.63l10.42-9.36Z" style="fill:#ffbe9d"></path><path d="M217.37,283.9l2.94,35.88a2.24,2.24,0,0,1-2,2.41l-22.13,2.36a2.25,2.25,0,0,1-2.47-2l-4.33-37.48a2.25,2.25,0,0,1,2.16-2.51l23.53-.75A2.25,2.25,0,0,1,217.37,283.9Z" style="fill:#263238"></path><path d="M206.26,299.84c.69.06,15.71,2.73,15.71,2.73l17.89,12.55,6.54,1.52L242.47,335l-5.89-1.53a71.58,71.58,0,0,1-9.21-.2c-4.58-.43-19.08-1.54-19.08-1.54l-7.48-4.15s-2.4-3.93-2.4-5A1.69,1.69,0,0,1,201,321c1.53.87,12,1.09,14.62,0,0,0-15.27-1.11-17.23-3.61s-1.31-4.47,1.09-4.47,11.12,1.31,13.74,1.09,5.89-.21,6.55-1.52-1.31-2.4-1.31-2.4l-2.84-2.18s-11.13-2-11.78-4.37A2.8,2.8,0,0,1,206.26,299.84Z" style="fill:#ffbe9d"></path><path d="M277.81,323a2.21,2.21,0,0,1,.72-.25,13.63,13.63,0,0,1,2-.36,20,20,0,0,1,6.75.37,19.38,19.38,0,0,1,6.24,2.6,12.72,12.72,0,0,1,1.64,1.23c.37.32.55.51.53.53s-.89-.59-2.36-1.45a22.14,22.14,0,0,0-6.16-2.4,23.29,23.29,0,0,0-6.6-.51C278.88,322.85,277.83,323.06,277.81,323Z" style="fill:#eb996e"></path><path d="M201.16,299.07s-12.76,2.07-13.57,2.88-16.87,20.49-16.87,20.49l8.2,16.11,14.37-7.78a22.66,22.66,0,0,1,4.56-1.48s14.51-2.28,15.45-4,.4-2.15-.68-2.42-9.75.72-11.68,1.08a29.79,29.79,0,0,1-5.77,0s6-1.41,7.38-1.88,14.86-3.5,14.64-5.91-1.9-3.3-10.34-1a60.41,60.41,0,0,1-14.24,2.28l18.67-6.51s7.52-2.42,5.1-4.57-18.53,2.29-18.53,2.29l-7.12,2.68,2-4.29s10.12-3,11.42-4c1.61-1.25,1.83-2.41.62-3.45S201.16,299.07,201.16,299.07Z" style="fill:#ffbe9d"></path><path d="M142.46,321.53l23.45,2-.23,6.43,5-7.56,8.2,16.11s-3,9.58-4.57,14.87c-4.28,14.17-11.24,30-19.8,29.23-10.27-1-17.77-13.13-17.6-21C137.1,354.48,142.46,321.53,142.46,321.53Z" style="fill:#ffbe9d"></path><path d="M170.72,322.44s.14-.2.44-.58l1.3-1.64,5.07-6.28,8.06-9.87,1.21-1.45c.2-.25.41-.5.64-.75a2.75,2.75,0,0,1,.95-.45c1.28-.38,2.62-.66,4-.95,2.75-.56,5.67-1.08,8.74-1.59h0a6.72,6.72,0,0,1,2.37-.11,3.08,3.08,0,0,1,1.18.41,2.73,2.73,0,0,1,.89.93,1.63,1.63,0,0,1,.13,1.33,3,3,0,0,1-.7,1.1,4.53,4.53,0,0,1-1,.82c-.39.2-.77.37-1.17.53-3.15,1.23-6.51,2.26-10,3.33l.15-.13-2,4.3-.3-.32,7.12-2.69h0c3.05-.82,6.19-1.56,9.44-2.16a47.53,47.53,0,0,1,5-.67,14.71,14.71,0,0,1,2.57,0,4.22,4.22,0,0,1,1.32.31,1.69,1.69,0,0,1,1,1.07,1.54,1.54,0,0,1-.43,1.4,5.34,5.34,0,0,1-1,.87,14.86,14.86,0,0,1-2.34,1.22c-1.62.69-3.3,1.19-5,1.79-3.32,1.17-6.7,2.34-10.11,3.53l-5.49,1.92-.09-.51a62.43,62.43,0,0,0,13.19-2,57.1,57.1,0,0,1,6.39-1.43,9.5,9.5,0,0,1,3.28,0,2.48,2.48,0,0,1,1.47.89,3,3,0,0,1,.49,1.65,1.3,1.3,0,0,1-.41.84,3.66,3.66,0,0,1-.64.54,10.58,10.58,0,0,1-1.39.77,29.44,29.44,0,0,1-2.89,1.15c-1.93.67-3.87,1.23-5.78,1.74l-2.84.76c-.93.24-1.86.57-2.79.79-1.85.47-3.68.91-5.47,1.33l0-.45a24.09,24.09,0,0,0,6.3-.08c2.06-.3,4.08-.52,6-.72,1-.09,2-.18,2.93-.24.48,0,1,0,1.45,0a3.94,3.94,0,0,1,.75,0,3.16,3.16,0,0,1,.71.25,1,1,0,0,1,.55.63,1.5,1.5,0,0,1,0,.79,4.42,4.42,0,0,1-.25.67l-.16.32a1,1,0,0,1-.26.31,8.19,8.19,0,0,1-2.52,1.13,89.87,89.87,0,0,1-9.67,2.16l-2.21.37a17.34,17.34,0,0,0-2.1.43,15.46,15.46,0,0,0-3.72,1.36l-10.39,5.56-2.75,1.45-.71.36-.24.11.22-.14.7-.4,2.71-1.51,10.33-5.67c2.27-1.26,5.11-1.73,8.1-2.24a90.53,90.53,0,0,0,9.62-2.2,8.07,8.07,0,0,0,2.37-1.05.91.91,0,0,0,.18-.21l.15-.3a3.79,3.79,0,0,0,.23-.61c.12-.43.05-.8-.33-1a3.47,3.47,0,0,0-.62-.22,4.64,4.64,0,0,0-.66,0c-.47,0-.95,0-1.42.06-1,.06-1.93.15-2.92.25-2,.2-4,.43-6,.73a24,24,0,0,1-6.4.1.22.22,0,0,1,0-.44h0c1.79-.43,3.62-.86,5.46-1.34.94-.22,1.83-.54,2.78-.8l2.84-.76c1.91-.52,3.84-1.07,5.75-1.74a29,29,0,0,0,2.84-1.14,8.89,8.89,0,0,0,1.32-.73c.38-.27.83-.64.83-1a2.41,2.41,0,0,0-.4-1.33,1.93,1.93,0,0,0-1.18-.7,8.92,8.92,0,0,0-3.09,0,58.67,58.67,0,0,0-6.33,1.43,62.53,62.53,0,0,1-13.32,2,.24.24,0,0,1-.26-.25.26.26,0,0,1,.17-.25h0l5.49-1.92,10.12-3.53c1.65-.6,3.34-1.11,4.92-1.77a14.56,14.56,0,0,0,2.25-1.18,4.49,4.49,0,0,0,.94-.78,1.06,1.06,0,0,0,.33-.93c-.21-.68-1.05-.94-1.86-1a14.67,14.67,0,0,0-2.48,0,44.74,44.74,0,0,0-4.92.66c-3.23.59-6.37,1.32-9.4,2.13h0l-7.12,2.68a.24.24,0,0,1-.31-.13.31.31,0,0,1,0-.19c.7-1.49,1.4-3,2-4.29a.25.25,0,0,1,.14-.13c3.47-1,6.85-2.07,10-3.28a11.51,11.51,0,0,0,1.12-.51,4.17,4.17,0,0,0,.91-.73,1.62,1.62,0,0,0,.52-1.94,2.34,2.34,0,0,0-1.77-1.14,6.3,6.3,0,0,0-2.21.1h0c-3.06.5-6,1-8.73,1.55-1.37.28-2.71.56-4,.92a2.82,2.82,0,0,0-.82.37l-.62.72-1.22,1.44-8.13,9.81-5.15,6.21-1.35,1.61C170.89,322.26,170.72,322.44,170.72,322.44Z" style="fill:#eb996e"></path><polygon points="129.98 428.74 89.74 445.5 105.56 463.84 139.95 457.12 129.98 428.74" style="fill:#ffbe9d"></polygon><path d="M237.5,393.57s2,46.25-2,54.39-45.08,9.31-45.08,9.31l-64.65,4.65-8.18-30.11s46.61-22.84,51-25.46,14.83-7.25,14.83-7.25l15.4-20.7Z" style="fill:#263238"></path><path d="M162.52,458.39a2.64,2.64,0,0,1,.5-.19l1.48-.47,5.5-1.64,18.51-5.33h.07a26.25,26.25,0,0,0,3.12-.26,26.51,26.51,0,0,0,3-.58c1-.3,1.93-.54,2.83-.92a27.75,27.75,0,0,0,5-2.5,29.47,29.47,0,0,0,7.12-6.29,28.54,28.54,0,0,0,3.45-5.43c.34-.68.54-1.24.72-1.6a2.88,2.88,0,0,1,.27-.55,2.59,2.59,0,0,1-.17.59c-.15.37-.32,1-.63,1.65a26.47,26.47,0,0,1-3.35,5.57,29.11,29.11,0,0,1-7.15,6.47,28.39,28.39,0,0,1-5.11,2.57c-.91.39-1.9.64-2.88.95a30.09,30.09,0,0,1-3.06.59,27.41,27.41,0,0,1-3.18.26h.06l-18.55,5.17-5.54,1.48-1.51.38A2.1,2.1,0,0,1,162.52,458.39Z" style="fill:#455a64"></path><path d="M167.18,407.71l-4.66-65.18s3-48.43-24.33-45.84-25.44,45.37-25.44,45.37,1.65,58.59,3.31,67.1,2.32,17.93,7.78,21.48l24.82-3.06Z" style="fill:#263238"></path><path d="M153.36,309.45l6,16.13-6,60.66s-35.19,1.89-34.83.94-5.32-30.47-5.32-30.47-.93-39,9.7-46.08S153.36,309.45,153.36,309.45Z" style="fill:#263238"></path><path d="M152,386.31s-1.39,29-1.39,29L125.18,428l-4.88-40.57Z" style="fill:#ffbe9d"></path><polygon points="198.8 378.4 169.48 368.7 154.55 382.65 164.04 411.08 187.36 401.82 198.8 378.4" style="fill:#263238"></polygon><path d="M117.55,431.81a2,2,0,0,1,.32-.19l1-.51,3.75-1.93,13.82-7,20.52-10.31,12.13-6.07,6.42-3.2,3.28-1.64,1.66-.83a12.56,12.56,0,0,1,1.71-.77,25.09,25.09,0,0,1,7.26-1.63,29.35,29.35,0,0,1,7.21.3,36.25,36.25,0,0,1,12.73,4.71,40.56,40.56,0,0,1,9.45,7.86,55,55,0,0,1,6.28,8.68,80.57,80.57,0,0,1,6.43,14.1c.61,1.72,1,3.07,1.32,4,.13.44.23.79.31,1.05l.09.36a1.49,1.49,0,0,1-.14-.35l-.36-1c-.31-.91-.77-2.25-1.41-4a83.74,83.74,0,0,0-6.55-14,56,56,0,0,0-6.29-8.58,40.32,40.32,0,0,0-9.37-7.74,36.12,36.12,0,0,0-12.57-4.62,28.87,28.87,0,0,0-7.09-.28,24.12,24.12,0,0,0-7.1,1.6,11.59,11.59,0,0,0-1.69.75l-1.66.83-3.28,1.64-6.42,3.19-12.14,6.05-20.57,10.2-13.9,6.84-3.78,1.83-1,.47Z" style="fill:#455a64"></path><path d="M174.42,400.58a27.63,27.63,0,0,0-.4-4.39,34.41,34.41,0,0,0-4-9.82,60.93,60.93,0,0,1-4.8-9.62,19.5,19.5,0,0,1-.84-3.17,4.62,4.62,0,0,1-.11-1.19c.1,0,.3,1.68,1.29,4.23a75.66,75.66,0,0,0,4.91,9.5,31.48,31.48,0,0,1,4,10,14.43,14.43,0,0,1,.19,3.28A4.26,4.26,0,0,1,174.42,400.58Z" style="fill:#455a64"></path><path d="M113.21,356.71a1.12,1.12,0,0,1,.09.31l.2.94c.18.86.43,2.08.74,3.62.63,3.15,1.52,7.71,2.56,13.35.52,2.82,1.09,5.91,1.62,9.25.13.84.26,1.68.34,2.57a2.27,2.27,0,0,1,0,.37l0,.12c0,.06,0,0,0-.1l0-.07s0,0,.06,0a5.21,5.21,0,0,0,.62.08c.43,0,.87,0,1.32,0,1.79,0,3.64,0,5.53-.06,7.58-.21,15.91-.6,24.65-1l2.45-.13-.24.23c1.7-16.86,3.24-32,4.35-43,.57-5.44,1-9.85,1.36-12.93.17-1.5.31-2.67.4-3.5l.12-.91a1.05,1.05,0,0,1,0-.31,1.23,1.23,0,0,1,0,.31c0,.24,0,.54-.07.92-.07.83-.17,2-.3,3.51-.29,3.09-.7,7.5-1.2,12.95-1.07,11-2.55,26.13-4.2,43l0,.23h-.22l-2.45.13c-8.75.44-17.08.82-24.67,1-1.89,0-3.74.07-5.55,0l-1.35-.06a6.24,6.24,0,0,1-.69-.09c-.08,0-.11,0-.24-.11s0,0-.09-.12a.36.36,0,0,1,0-.14c0-.06.16,0,0,0v-.05s0-.19,0-.27c-.06-.85-.2-1.71-.32-2.54-.51-3.33-1.06-6.42-1.55-9.25-1-5.62-1.82-10.18-2.4-13.37-.27-1.55-.49-2.77-.64-3.64-.06-.39-.11-.71-.15-1A1.11,1.11,0,0,1,113.21,356.71Z" style="fill:#455a64"></path><path d="M147.22,304.67a3.62,3.62,0,0,1,.76.7,24.81,24.81,0,0,1,1.87,2.1,40.39,40.39,0,0,1,5,7.84,40.83,40.83,0,0,1,3,8.77,28.2,28.2,0,0,1,.48,2.78,3.83,3.83,0,0,1,.06,1c-.09,0-.32-1.44-.9-3.72a46.32,46.32,0,0,0-7.92-16.47C148.14,305.81,147.15,304.73,147.22,304.67Z" style="fill:#455a64"></path><path d="M175.78,399.22a3.87,3.87,0,0,1,.15-1c.13-.62.35-1.51.67-2.59a53.69,53.69,0,0,1,7.67-15.85c.66-.92,1.22-1.65,1.62-2.13s.65-.75.68-.72-.76,1.17-2,3.05a67.83,67.83,0,0,0-4.33,7.63,70.3,70.3,0,0,0-3.3,8.13C176.23,397.89,175.86,399.24,175.78,399.22Z" style="fill:#455a64"></path><path d="M219.74,394.78c.08,0,.45,1,1.22,2.6A30.31,30.31,0,0,0,229.54,408c1.39,1.09,2.33,1.67,2.28,1.75a2.63,2.63,0,0,1-.71-.33,17.2,17.2,0,0,1-1.79-1.13,25.64,25.64,0,0,1-8.69-10.79,18.38,18.38,0,0,1-.73-2A2.62,2.62,0,0,1,219.74,394.78Z" style="fill:#455a64"></path><path d="M90.74,464.59c-15.13-.45-18.94.11-34.06-.34-3.7-.12-17.12.63-20.25-1.33-2.85-1.8-6.49-3.45-7.29-6.72-1.36-5.51,0-11.81,5.06-15.38a12.28,12.28,0,0,1,5.9-2.15c8.91-.9,17.21,5.44,26.09,3.32,2.4-.57,4.54-2,6.93-2.59a15.4,15.4,0,0,1,10.48,1.47c3.24,1.59,4,1.85,4,1.85L103.36,437l5.54,27.67Z" style="fill:#455a64"></path><path d="M103.5,430.44l-8.3,2.91a2.62,2.62,0,0,0-1.68,3.08l7.09,29.66a2.62,2.62,0,0,0,2.89,2L112,467a2.62,2.62,0,0,0,2.21-3.19l-7.26-31.43A2.63,2.63,0,0,0,103.5,430.44Z" style="fill:#455a64"></path><path d="M100.82,467.25a28,28,0,0,1-1.64-4.44c-.91-2.77-2.07-6.64-3.11-11s-1.77-8.31-2.17-11.21c-.21-1.44-.34-2.62-.41-3.43a4.41,4.41,0,0,1,0-1.27,36.74,36.74,0,0,1,1,4.62c.53,2.86,1.32,6.8,2.36,11.12s2.12,8.19,2.9,11A35.5,35.5,0,0,1,100.82,467.25Z" style="fill:#263238"></path><path d="M95,440.2c-.14-.11,2.36-2.29,6.26-3s7,.45,6.9.6-3.08-.58-6.77.11S95.13,440.39,95,440.2Z" style="fill:#263238"></path><path d="M96.24,451.42c-.06-.19,3-1.36,7-2.36s7.22-1.46,7.26-1.27-3.16,1-7.09,2S96.3,451.61,96.24,451.42Z" style="fill:#263238"></path><path d="M100.29,463c0-.22,3.26.09,6.8-1.51s5.53-4.15,5.7-4-.32.77-1.22,1.73a13.21,13.21,0,0,1-9.18,4.05A4.45,4.45,0,0,1,100.29,463Z" style="fill:#263238"></path><polygon points="151.99 406.08 150.6 415.32 125.18 428 122.02 408.74 151.99 406.08" style="fill:#455a64"></polygon><path d="M118.11,401.24l1.59,8.8a2.68,2.68,0,0,0,2.84,2.19l31-2.4a2.67,2.67,0,0,0,2.46-2.6l.22-8.7a2.66,2.66,0,0,0-2.85-2.73l-32.78,2.3A2.66,2.66,0,0,0,118.11,401.24Z" style="fill:#455a64"></path><path d="M154.7,409.8a30.23,30.23,0,0,1-4.72.94c-2.94.47-7,1-11.54,1.38s-8.64.45-11.61.4c-1.49,0-2.69-.08-3.52-.14a4.46,4.46,0,0,1-1.29-.17,40.59,40.59,0,0,1,4.8-.21c3-.08,7.06-.25,11.57-.61s8.57-.82,11.52-1.16A32.64,32.64,0,0,1,154.7,409.8Z" style="fill:#263238"></path><path d="M126.56,411.33c-.13.12-1.92-2.74-2-6.77s1.56-7,1.7-6.85-1.08,3-1,6.83S126.78,411.24,126.56,411.33Z" style="fill:#263238"></path><path d="M138.05,411.88c-.2,0-.89-3.26-1.27-7.4s-.31-7.5-.11-7.5.46,3.33.84,7.44S138.25,411.85,138.05,411.88Z" style="fill:#263238"></path><path d="M150.34,409.65c-.23,0,.61-3.26-.44-7.08s-3.3-6.23-3.11-6.37.72.44,1.54,1.5a13.44,13.44,0,0,1,2.61,9.88A4.59,4.59,0,0,1,150.34,409.65Z" style="fill:#263238"></path></g></svg>